<svg xmlns="http://www.w3.org/2000/svg" xmlns:xlink="http://www.w3.org/1999/xlink" width="82" height="82" viewBox="0 0 82 82">
  <defs>
    <clipPath id="clip-path">
      <circle id="Ellipse_48-2" data-name="Ellipse 48-2" cx="41" cy="41" r="41" transform="translate(0 0)" fill="#fff"/>
    </clipPath>
  </defs>
  <g id="Group_760" data-name="Group 760" transform="translate(924.809 -3391.404)">
    <g id="Group_743" data-name="Group 743" transform="translate(-924.809 3391.404)">
      <circle id="Ellipse_48-2-2" data-name="Ellipse 48-2" cx="41" cy="41" r="41" transform="translate(0 0)" fill="#fff"/>
      <g id="Group_742" data-name="Group 742" clip-path="url(#clip-path)">
        <g id="Group_763" data-name="Group 763" transform="translate(-135.804 -79.016)">
          <rect id="Rectangle_153" data-name="Rectangle 153" width="2.086" height="5.961" rx="1.043" transform="translate(174.58 160.607)" fill="#e8801f"/>
          <g id="Group_114" data-name="Group 114" transform="translate(142.114 98.757)">
            <rect id="Rectangle_154" data-name="Rectangle 154" width="9.923" height="4.123" transform="translate(28.492 6.805)" fill="#3bc5a2"/>
            <path id="Path_275" data-name="Path 275" d="M227.612,216.044l-2.647-3.745,2.235-1.788,2.848,3.631-1.432,1.073Z" transform="translate(-215.882 -198.259)" fill="#3bc5a2"/>
            <path id="Path_276" data-name="Path 276" d="M250.885,197.9l-3.438-3.706-2.086,1.788,2.848,3.631Z" transform="translate(-234.041 -183.731)" fill="#3bc5a2"/>
            <g id="Group_104" data-name="Group 104" transform="translate(26.257 0)">
              <g id="Group_103" data-name="Group 103">
                <path id="Path_277" data-name="Path 277" d="M395.867,102.483a3.73,3.73,0,0,0-3.713-3.726h-6.832a3.73,3.73,0,0,0-3.713,3.726v1.739h14.257Z" transform="translate(-381.61 -98.757)" fill="#3bc5a2"/>
              </g>
            </g>
            <g id="Group_106" data-name="Group 106" transform="translate(49.908 10.258)">
              <g id="Group_105" data-name="Group 105">
                <path id="Path_278" data-name="Path 278" d="M603.122,194.21l-2.26-1.888-3.521,3.488a33.515,33.515,0,0,1,2.836,1.79Z" transform="translate(-597.341 -192.322)" fill="#3bc5a2"/>
                <path id="Path_279" data-name="Path 279" d="M625.519,214.714l2.967-3.385-2.335-1.788-2.945,3.391Q624.4,213.772,625.519,214.714Z" transform="translate(-620.37 -207.652)" fill="#3bc5a2"/>
              </g>
            </g>
            <rect id="Rectangle_155" data-name="Rectangle 155" width="14.257" height="4.676" transform="translate(26.257 3.421)" fill="#3bc5a2"/>
            <rect id="Rectangle_156" data-name="Rectangle 156" width="1.515" height="4.676" transform="translate(28.492 3.421)" fill="#3bc5a2"/>
            <rect id="Rectangle_157" data-name="Rectangle 157" width="1.515" height="4.676" transform="translate(32.727 3.421)" fill="#3bc5a2"/>
            <rect id="Rectangle_158" data-name="Rectangle 158" width="1.515" height="4.676" transform="translate(36.9 3.421)" fill="#3bc5a2"/>
            <path id="Path_280" data-name="Path 280" d="M145.889,218.976A29.728,29.728,0,0,1,196.882,198.2l2.692-2.647a33.5,33.5,0,1,0-47.78,46.978l2.692-2.647A29.634,29.634,0,0,1,145.889,218.976Z" transform="translate(-142.114 -175.963)" fill="#3bc5a2"/>
            <g id="Group_108" data-name="Group 108" transform="translate(9.679 19.589)">
              <g id="Group_107" data-name="Group 107">
                <path id="Path_281" data-name="Path 281" d="M278.182,277.43l-2.692,2.647a29.729,29.729,0,0,1-42.4,41.685l-2.692,2.647a33.5,33.5,0,0,0,47.78-46.978Z" transform="translate(-230.402 -277.43)" fill="#3bc5a2"/>
              </g>
            </g>
            <rect id="Rectangle_159" data-name="Rectangle 159" width="2.086" height="5.961" rx="1.043" transform="translate(15.85 41.801) rotate(90)" fill="#e8801f"/>
            <rect id="Rectangle_160" data-name="Rectangle 160" width="2.086" height="5.961" rx="1.043" transform="translate(21.448 29.769) rotate(132.331)" fill="#a8ebd3"/>
            <rect id="Rectangle_161" data-name="Rectangle 161" width="2.086" height="5.961" rx="1.043" transform="matrix(-0.673, 0.739, -0.739, -0.673, 50.706, 58.878)" fill="#a8ebd3"/>
            <rect id="Rectangle_162" data-name="Rectangle 162" width="2.086" height="5.961" rx="1.043" transform="translate(20.305 54.797) rotate(45)" fill="#a8ebd3"/>
            <rect id="Rectangle_163" data-name="Rectangle 163" width="2.086" height="5.961" rx="1.043" transform="translate(32.466 19.224)" fill="#e8801f"/>
            <rect id="Rectangle_164" data-name="Rectangle 164" width="2.086" height="5.961" rx="1.043" transform="translate(57.428 41.801) rotate(90)" fill="#e8801f"/>
            <rect id="Rectangle_165" data-name="Rectangle 165" width="2.086" height="5.961" rx="1.043" transform="translate(49.533 25.569) rotate(45)" fill="#a8ebd3"/>
            <g id="Group_109" data-name="Group 109" transform="translate(36.25 31.058)">
              <path id="Path_282" data-name="Path 282" d="M485.844,382.076l-13.086,7.338a5.525,5.525,0,0,1,2.456,3.3l10.855-10.338A.191.191,0,0,0,485.844,382.076Z" transform="translate(-472.758 -382.049)" fill="#b6c1c1"/>
            </g>
            <g id="Group_111" data-name="Group 111" transform="translate(34.456 27.385)">
              <g id="Group_110" data-name="Group 110">
                <path id="Path_283" data-name="Path 283" d="M470.99,348.594,456.4,358.881a5.523,5.523,0,0,1,3.775,2.8l11.129-12.74A.237.237,0,0,0,470.99,348.594Z" transform="translate(-456.4 -348.548)" fill="#efb313"/>
              </g>
            </g>
            <g id="Group_113" data-name="Group 113" transform="translate(27.99 37.496)">
              <g id="Group_112" data-name="Group 112">
                <path id="Path_284" data-name="Path 284" d="M402.932,440.773a5.516,5.516,0,1,0,5.516,5.516A5.516,5.516,0,0,0,402.932,440.773Zm0,9.236a3.72,3.72,0,1,1,3.72-3.72A3.72,3.72,0,0,1,402.932,450.009Z" transform="translate(-397.416 -440.773)" fill="#a8ebd3"/>
              </g>
            </g>
          </g>
          <g id="Group_115" data-name="Group 115" transform="translate(204.567 100.241)">
            <path id="Path_285" data-name="Path 285" d="M722.658,120.558l-.471.433-9.666,8.863-.672.616c-.023.021-.047.041-.07.061l-.015-.012c.016-.03.03-.06.047-.089l.942-1.681,3.409-6.083a.212.212,0,0,0,.044-.106c-.036-.005-.069-.012-.1-.015l-.581-.044-.6-.049-.543-.042-.656-.052-.562-.043-.628-.05-.59-.045c-.033,0-.069,0-.1-.021a.094.094,0,0,1,.013-.025l9.825-9.878s.01,0,.016,0a.033.033,0,0,1,0,.009.026.026,0,0,1,0,.009l-.009.017,0,.008,0,.008-.01.016-4.655,7.685-.009.016,0,.008,0,.008,0,.008a.038.038,0,0,0,0,.009.033.033,0,0,0,0,.009.1.1,0,0,0,0,.013.4.4,0,0,0,.117.017l1.013.064,1.154.076.853.056,1.144.075,1.144.075.244.017a.315.315,0,0,1,.034.006C722.7,120.535,722.672,120.544,722.658,120.558Z" transform="translate(-711.763 -112.293)" fill="#e8801f"/>
          </g>
        </g>
      </g>
    </g>
  </g>
</svg>
