<svg xmlns="http://www.w3.org/2000/svg" xmlns:xlink="http://www.w3.org/1999/xlink" width="82" height="81" viewBox="0 0 82 81">
  <defs>
    <clipPath id="clip-path">
      <ellipse id="Ellipse_49-2" data-name="Ellipse 49-2" cx="41" cy="40.5" rx="41" ry="40.5" transform="translate(0 0.012)" fill="#fff"/>
    </clipPath>
  </defs>
  <g id="Group_767" data-name="Group 767" transform="translate(733.735 -3391.416)">
    <g id="Group_745" data-name="Group 745" transform="translate(-733.735 3391.404)">
      <ellipse id="Ellipse_49-2-2" data-name="Ellipse 49-2" cx="41" cy="40.5" rx="41" ry="40.5" transform="translate(0 0.012)" fill="#fff"/>
      <g id="Group_744" data-name="Group 744" transform="translate(0 0)" clip-path="url(#clip-path)">
        <path id="Path_412" data-name="Path 412" d="M-639.744,3490.258l-.158.093v-.327Z" transform="translate(705.433 -3421.15)" fill="none"/>
        <path id="Path_413" data-name="Path 413" d="M-652.924,3474.988l-6.367,3.6-4.627,2.619-12.442,3.827c-3.125-.5-22.283-3.578-23.572-3.578-.941,0-4.186-.034-5.8-.053v-11.72h5.558l7.742-8.288,16.486.285a.648.648,0,0,1,.075,0,6.439,6.439,0,0,1,1.851.442,2.4,2.4,0,0,1,1.722,2.194v2.479a1,1,0,0,1-1,1l-11.907.55,8.85,8.35h12.7l5.339-2.669a9.808,9.808,0,0,1,2.355-.667,5.334,5.334,0,0,1,1.154-.044,3.091,3.091,0,0,1,.557.1,1.711,1.711,0,0,1,1.083.809l.249.374.183.277Z" transform="translate(725.291 -3412.516)" fill="#ffdfcc"/>
        <path id="Path_414" data-name="Path 414" d="M-700.49,3484.744c.515.116,23.53,3.516,23.53,3.516l12.215-2.5,11.62-6.1.482.925-11.4,6.523-12.558,3.771-24.128-3.3-5.674-.074v-2.829Z" transform="translate(725.49 -3418.026)" fill="#ffc9a4"/>
        <rect id="Rectangle_230" data-name="Rectangle 230" width="18.561" height="5.385" transform="translate(21.649 36.861)" fill="#fffcfc"/>
        <rect id="Rectangle_231" data-name="Rectangle 231" width="19.93" height="15.237" transform="translate(-1.54 53.905)" fill="#16d391"/>
        <rect id="Rectangle_232" data-name="Rectangle 232" width="19.93" height="6.848" transform="translate(-1.54 66.536)" fill="#16d391"/>
        <path id="Path_417" data-name="Path 417" d="M-682.966,3415h9.516v11.911l-4.625-1.654-4.916,1.654Z" transform="translate(718.43 -3398.52)" fill="#16d391"/>
        <path id="Path_418" data-name="Path 418" d="M-673.775,3428.157l-4.51-1.91a.493.493,0,0,0-.367-.006l-4.93,1.908a.489.489,0,0,1-.633-.279.494.494,0,0,1-.033-.177v-12.209a.488.488,0,0,1,.488-.489h.531a.489.489,0,0,1,.489.489h0V3425.5a.49.49,0,0,0,.491.488.5.5,0,0,0,.175-.033l3.449-1.335a.49.49,0,0,1,.367.006l2.978,1.26a.488.488,0,0,0,.642-.253.472.472,0,0,0,.041-.2v-9.95a.489.489,0,0,1,.488-.488h.529a.488.488,0,0,1,.49.488h0v12.224a.487.487,0,0,1-.484.491A.476.476,0,0,1-673.775,3428.157Z" transform="translate(718.809 -3398.52)" fill="#191819"/>
        <path id="Path_419" data-name="Path 419" d="M-658.842,3402.371v50.78a7.275,7.275,0,0,0-1.456.07,11.6,11.6,0,0,0-2.844.816l-.016.008-5.505,2.752h-10.712l-6.392-5.391h10.333a1,1,0,0,0,1-1V3446a3.978,3.978,0,0,0-.981-2.569,5.086,5.086,0,0,0-1.9-1.319,8.247,8.247,0,0,0-2.553-.591h-17.215l-7.909,8h-4.769v-.1a2.154,2.154,0,0,0-2.154-2.154h-7.172v-44.893a1.594,1.594,0,0,1,1.594-1.594h57.06A1.6,1.6,0,0,1-658.842,3402.371Z" transform="translate(729.318 -3394.233)" fill="none"/>
        <path id="Path_420" data-name="Path 420" d="M-637.155,3490.258l-.158.093v-.327Z" transform="translate(704.652 -3421.15)" fill="none"/>
        <path id="Path_421" data-name="Path 421" d="M-661.442,3416.7v40.915a3.179,3.179,0,0,0-.677-.268,4.121,4.121,0,0,0-.829-.131V3416.7a1.275,1.275,0,0,0-1.273-1.273h-45.527a1.275,1.275,0,0,0-1.273,1.273v35.819h-1.506V3416.7a2.782,2.782,0,0,1,2.78-2.781h45.527A2.782,2.782,0,0,1-661.442,3416.7Z" transform="translate(727.339 -3398.194)" fill="#191819"/>
        <path id="Path_422" data-name="Path 422" d="M-661.209,3472.564a3.476,3.476,0,0,0-1.369-1.324,3.888,3.888,0,0,0-.849-.335,5.094,5.094,0,0,0-1.039-.165,7.211,7.211,0,0,0-1.456.071,11.649,11.649,0,0,0-2.843.816l-.016.008-5.486,2.743a.094.094,0,0,1-.043.011h-10.656a.1.1,0,0,1-.064-.024l-6.158-5.2a.1.1,0,0,1-.011-.139.1.1,0,0,1,.074-.035h9.968a1.1,1.1,0,0,0,1.1-1.095v-4.312a3.99,3.99,0,0,0-.982-2.575,5.1,5.1,0,0,0-1.9-1.318,8.3,8.3,0,0,0-2.553-.591H-701.91a1.916,1.916,0,0,0-1.367.571l-7.315,7.4a.1.1,0,0,1-.069.029h-4.63a.1.1,0,0,1-.1-.1h0a2.156,2.156,0,0,0-2.154-2.154H-736.8a.945.945,0,0,0-.945.944h0a.944.944,0,0,0,.944.944h19.152a.363.363,0,0,1,.363.363h0v16.9a.363.363,0,0,1-.362.364H-736.8a.944.944,0,0,0-.944.944h0a.944.944,0,0,0,.944.944h19.157a2.248,2.248,0,0,0,2.248-2.248h0v-1.3a.1.1,0,0,1,.1-.1h0c1.657.019,4.766.051,5.706.051.992.019,14.591,2.156,23.491,3.59l.195.031a.1.1,0,0,0,.045,0l13.025-4.007.019-.007,12.227-6.924a.95.95,0,0,0,.357-1.295c-.011-.019-.023-.038-.036-.057Zm-1.369,1.73-6.368,3.6-4.617,2.615-.02.009-12.41,3.817a.09.09,0,0,1-.043,0c-3.191-.513-22.267-3.574-23.551-3.574-.924,0-4.062-.033-5.709-.052a.1.1,0,0,1-.1-.1V3469.09a.1.1,0,0,1,.1-.1h5.42a.1.1,0,0,0,.07-.029l7.356-7.446a1.781,1.781,0,0,1,1.268-.53h15.663a6.443,6.443,0,0,1,1.842.44,2.4,2.4,0,0,1,1.722,2.194V3466a1.1,1.1,0,0,1-1.1,1.1h-12.117a.512.512,0,0,0-.513.511.51.51,0,0,0,.183.392l9.256,7.81a.814.814,0,0,0,.524.191h12.375a.093.093,0,0,0,.044-.009l5.319-2.661a9.807,9.807,0,0,1,2.355-.665,5.108,5.108,0,0,1,1.155-.042,2.991,2.991,0,0,1,.556.1,1.712,1.712,0,0,1,1.084.808l.249.375.125.189a.1.1,0,0,1-.027.135l-.006,0Z" transform="translate(734.946 -3411.824)" fill="#191819"/>
        <g id="Group_144" data-name="Group 144" transform="translate(20.815 35.861)">
          <path id="Path_423" data-name="Path 423" d="M-685.573,3450.221H-702a1.829,1.829,0,0,1-1.935-1.7v-4.069a1.83,1.83,0,0,1,1.935-1.7h16.423a1.829,1.829,0,0,1,1.935,1.7v4.069A1.829,1.829,0,0,1-685.573,3450.221ZM-702,3444.078a.405.405,0,0,0-.427.376v4.069a.4.4,0,0,0,.427.376h16.423a.4.4,0,0,0,.427-.376v-4.069a.406.406,0,0,0-.427-.376Z" transform="translate(703.931 -3442.753)" fill="#191819"/>
        </g>
        <g id="foodIcon-02" transform="translate(254.855 9.498)">
          <rect id="Rectangle_626" data-name="Rectangle 626" width="22.519" height="3.883" transform="translate(0.569 13.668)" fill="#b5b5b5"/>
          <path id="Path_705" data-name="Path 705" d="M-345.724,3428.8h-22.519a.569.569,0,0,1-.569-.569v-3.891a.569.569,0,0,1,.569-.569h22.519a.569.569,0,0,1,.569.569v3.883a.568.568,0,0,1-.563.574h-.006Zm-21.933-1.168H-346.3v-2.724h-21.354Z" transform="translate(368.812 -3410.665)" fill="#191819"/>
          <path id="Path_706" data-name="Path 706" d="M-346.547,3443.82l-.785,11.205-16.612,3.082-.773-10.917Z" transform="translate(367.577 -3416.712)" fill="#16d391"/>
          <path id="Path_707" data-name="Path 707" d="M-350.775,3467.189h-11.113a2.547,2.547,0,0,1-2.53-2.359l-2.245-32.2H-346l-2.274,32.2A2.547,2.547,0,0,1-350.775,3467.189Zm-14.643-33.39,2.16,30.945a1.381,1.381,0,0,0,1.37,1.279h11.113a1.381,1.381,0,0,0,1.37-1.28l2.155-30.945Z" transform="translate(368.164 -3413.338)" fill="#191819"/>
          <path id="Path_708" data-name="Path 708" d="M-348.905,3405l-3.968,6.868-.267.989v4.411h1.983v-4.411l3.968-6.868Z" transform="translate(364.085 -3405.005)" fill="#16d391"/>
          <path id="Path_709" data-name="Path 709" d="M-319.866,3443.2a14.355,14.355,0,0,0-8.385-2.814,14.349,14.349,0,0,0-8.385,2.814s-2.928,2.018-5.253,2.212c4.975,2.325,13.645,2.769,13.645,2.769s8.664-.444,13.645-2.769C-316.932,3445.223-319.866,3443.2-319.866,3443.2Z" transform="translate(360.692 -3415.676)" fill="#b5b5b5"/>
          <path id="Path_710" data-name="Path 710" d="M-328.543,3448.621c-.438,0-8.948-.478-14-2.842a.779.779,0,0,1-.369-1.038.779.779,0,0,1,.63-.441c2.1-.17,4.85-2.058,4.873-2.075a15.294,15.294,0,0,1,8.829-2.951,15.7,15.7,0,0,1,8.823,2.956h0s2.793,1.9,4.878,2.075a.779.779,0,0,1,.708.844.779.779,0,0,1-.441.635C-319.669,3448.143-328.186,3448.6-328.543,3448.621Zm-11.174-3.411a53.765,53.765,0,0,0,11.174,1.865,52.493,52.493,0,0,0,11.093-1.865,18.517,18.517,0,0,1-3.185-1.709,13.811,13.811,0,0,0-7.9-2.683h-.108a13.812,13.812,0,0,0-7.892,2.683,18.459,18.459,0,0,1-3.184,1.705Z" transform="translate(361.024 -3415.339)" fill="#191819"/>
          <path id="Path_711" data-name="Path 711" d="M-317.3,3450.558a1.465,1.465,0,0,1-.349-.04,1.546,1.546,0,0,1-1.137-1.859l3.411-14.782a1.552,1.552,0,0,1,1.779-1.286,1.552,1.552,0,0,1,1.286,1.779,1.566,1.566,0,0,1-.05.211l-3.411,14.783A1.545,1.545,0,0,1-317.3,3450.558Z" transform="translate(353.735 -3413.32)" fill="#ffdd7d"/>
          <path id="Path_712" data-name="Path 712" d="M-311.538,3449.412a1.67,1.67,0,0,1-.467-.07,1.558,1.558,0,0,1-1.018-1.944l4.645-14.78a1.552,1.552,0,0,1,2.013-.874,1.552,1.552,0,0,1,.943,1.789l-4.638,14.781A1.546,1.546,0,0,1-311.538,3449.412Z" transform="translate(352.006 -3413.037)" fill="#ffdd7d"/>
          <path id="Path_713" data-name="Path 713" d="M-335.087,3453.261a1.546,1.546,0,0,1-1.512-1.2l-2.905-13.644a1.563,1.563,0,0,1,1.194-1.859,1.563,1.563,0,0,1,1.859,1.194h0l2.905,13.645a1.552,1.552,0,0,1-1.194,1.842,1.547,1.547,0,0,1-.325.034Z" transform="translate(359.983 -3414.511)" fill="#ffdd7d"/>
          <path id="Path_714" data-name="Path 714" d="M-325.518,3449.384a1.552,1.552,0,0,1-1.546-1.506l-.458-14.867a1.546,1.546,0,0,1,1.493-1.6h.068a1.552,1.552,0,0,1,1.536,1.484l.46,14.884a1.541,1.541,0,0,1-1.472,1.606h0Z" transform="translate(356.358 -3412.97)" fill="#ffdd7d"/>
          <path id="Path_715" data-name="Path 715" d="M-320.134,3451.96h-.063a1.546,1.546,0,0,1-1.49-1.6v-.006l.529-13.685a1.552,1.552,0,0,1,1.67-1.424,1.552,1.552,0,0,1,1.429,1.543l-.5,13.678A1.551,1.551,0,0,1-320.134,3451.96Z" transform="translate(354.598 -3414.125)" fill="#ffdd7d"/>
          <path id="Path_716" data-name="Path 716" d="M-330.43,3450.17a1.552,1.552,0,0,1-1.518-1.234l-3.718-17.809a1.551,1.551,0,0,1,1.259-1.8,1.552,1.552,0,0,1,1.777,1.16l3.716,17.809a1.558,1.558,0,0,1-1.215,1.839,1.606,1.606,0,0,1-.3.031Z" transform="translate(358.822 -3412.335)" fill="#ffdd7d"/>
          <path id="Path_717" data-name="Path 717" d="M-314.613,3447.589l-2.6,23.377h-22.082l-2.6-23.377c4.975,2.325,13.645,2.769,13.645,2.769S-319.588,3449.915-314.613,3447.589Z" transform="translate(360.692 -3417.849)" fill="#16d391"/>
          <path id="Path_718" data-name="Path 718" d="M-317.545,3471.4h-22.082a.768.768,0,0,1-.768-.688l-2.6-23.384a.758.758,0,0,1,.318-.711.769.769,0,0,1,.779-.091c4.781,2.229,13.264,2.69,13.349,2.695s8.494-.419,13.269-2.695a.769.769,0,0,1,.779.074.756.756,0,0,1,.313.728l-2.6,23.384a.768.768,0,0,1-.762.688Zm-21.388-1.563h20.694l2.375-21.382c-5.117,1.91-12.354,2.274-12.684,2.319a48.128,48.128,0,0,1-12.764-2.319Z" transform="translate(361.026 -3417.508)" fill="#191819"/>
          <circle id="Ellipse_55" data-name="Ellipse 55" cx="5.151" cy="5.151" r="5.151" transform="translate(27.289 37.193)" fill="#fff"/>
        </g>
      </g>
    </g>
  </g>
</svg>
