<svg xmlns="http://www.w3.org/2000/svg" xmlns:xlink="http://www.w3.org/1999/xlink" width="82" height="82" viewBox="0 0 82 82">
  <defs>
    <clipPath id="clip-path">
      <circle id="Ellipse_50-2" data-name="Ellipse 50-2" cx="41" cy="41" r="41" transform="translate(0 0)" fill="#fff"/>
    </clipPath>
  </defs>
  <g id="Group_197" data-name="Group 197" transform="translate(231.76 -3396.299)">
    <g id="Group_750" data-name="Group 750" transform="translate(-231.759 3396.298)">
      <g id="Group_749" data-name="Group 749">
        <circle id="Ellipse_50-2-2" data-name="Ellipse 50-2" cx="41" cy="41" r="41" transform="translate(0 0)" fill="#fff"/>
        <g id="Group_748" data-name="Group 748" clip-path="url(#clip-path)">
          <g id="foodIcon-02" transform="translate(7.667 9.614)">
            <rect id="Rectangle_626" data-name="Rectangle 626" width="32.042" height="5.525" transform="translate(0.809 19.447)" fill="#b5b5b5"/>
            <path id="Path_705" data-name="Path 705" d="M-188.062,3443.431H-220.1a.809.809,0,0,1-.809-.809v-5.536a.809.809,0,0,1,.809-.81h32.042a.809.809,0,0,1,.809.81v5.524a.809.809,0,0,1-.8.817h-.008Zm-31.208-1.662h30.383v-3.875H-219.27Z" transform="translate(220.913 -3417.63)" fill="#191819"/>
            <path id="Path_706" data-name="Path 706" d="M-189.3,3464.463l-1.117,15.944-23.637,4.385-1.1-15.533Z" transform="translate(219.226 -3425.892)" fill="#16d391"/>
            <path id="Path_707" data-name="Path 707" d="M-195.285,3497.906H-211.1a3.624,3.624,0,0,1-3.6-3.357l-3.194-45.81h29.4l-3.236,45.81A3.624,3.624,0,0,1-195.285,3497.906Zm-20.835-47.509,3.074,44.031a1.966,1.966,0,0,0,1.95,1.82h15.812a1.966,1.966,0,0,0,1.95-1.82l3.066-44.031Z" transform="translate(220.028 -3421.283)" fill="#191819"/>
            <path id="Path_708" data-name="Path 708" d="M-192.857,3409.9l-5.646,9.772-.381,1.408v6.277h2.822v-6.277l5.647-9.772Z" transform="translate(214.456 -3409.899)" fill="#16d391"/>
            <path id="Path_709" data-name="Path 709" d="M-151.731,3463.646c-6.407-4.4-11.932-4-11.932-4s-5.524-.4-11.931,4c0,0-4.166,2.872-7.475,3.147,7.078,3.309,19.415,3.94,19.415,3.94s12.328-.631,19.415-3.94C-147.556,3466.517-151.731,3463.646-151.731,3463.646Z" transform="translate(209.82 -3424.476)" fill="#b5b5b5"/>
            <path id="Path_710" data-name="Path 710" d="M-164.058,3471.371c-.623,0-12.733-.679-19.924-4.044a1.109,1.109,0,0,1-.525-1.477,1.108,1.108,0,0,1,.9-.627c2.982-.242,6.9-2.929,6.933-2.952,6.36-4.328,11.819-4.239,12.562-4.2a22.334,22.334,0,0,1,12.554,4.207h0s3.975,2.709,6.941,2.952a1.108,1.108,0,0,1,1.007,1.2,1.108,1.108,0,0,1-.626.9C-151.432,3470.692-163.55,3471.347-164.058,3471.371Zm-15.9-4.853a76.541,76.541,0,0,0,15.9,2.653,74.715,74.715,0,0,0,15.784-2.653,26.326,26.326,0,0,1-4.532-2.432c-5.978-4.109-11.18-3.818-11.236-3.818h-.154c-.049,0-5.249-.291-11.229,3.818a26.36,26.36,0,0,1-4.53,2.427Z" transform="translate(210.274 -3424.016)" fill="#191819"/>
            <path id="Path_711" data-name="Path 711" d="M-148.473,3474.242a2.147,2.147,0,0,1-.5-.057,2.2,2.2,0,0,1-1.617-2.645l4.854-21.033a2.207,2.207,0,0,1,2.53-1.829,2.208,2.208,0,0,1,1.829,2.531,2.181,2.181,0,0,1-.07.3l-4.854,21.035A2.2,2.2,0,0,1-148.473,3474.242Z" transform="translate(200.318 -3421.257)" fill="#ffdd7d"/>
            <path id="Path_712" data-name="Path 712" d="M-140.375,3472.627a2.376,2.376,0,0,1-.664-.1,2.216,2.216,0,0,1-1.448-2.767l6.609-21.03a2.208,2.208,0,0,1,2.864-1.244,2.209,2.209,0,0,1,1.342,2.547l-6.6,21.031A2.2,2.2,0,0,1-140.375,3472.627Z" transform="translate(197.955 -3420.871)" fill="#ffdd7d"/>
            <path id="Path_713" data-name="Path 713" d="M-173.429,3478.021a2.2,2.2,0,0,1-2.151-1.707l-4.134-19.413a2.223,2.223,0,0,1,1.7-2.645,2.223,2.223,0,0,1,2.645,1.7h0l4.134,19.416a2.208,2.208,0,0,1-1.7,2.62,2.2,2.2,0,0,1-.462.049Z" transform="translate(208.852 -3422.885)" fill="#ffdd7d"/>
            <path id="Path_714" data-name="Path 714" d="M-160.019,3472.592a2.207,2.207,0,0,1-2.2-2.143l-.652-21.154a2.2,2.2,0,0,1,2.125-2.273h.1a2.208,2.208,0,0,1,2.186,2.111l.655,21.178a2.192,2.192,0,0,1-2.095,2.285h0Z" transform="translate(203.901 -3420.78)" fill="#ffdd7d"/>
            <path id="Path_715" data-name="Path 715" d="M-152.459,3476.192h-.089a2.2,2.2,0,0,1-2.12-2.278v-.008l.752-19.471a2.208,2.208,0,0,1,2.377-2.026,2.207,2.207,0,0,1,2.033,2.2l-.712,19.462A2.209,2.209,0,0,1-152.459,3476.192Z" transform="translate(201.497 -3422.357)" fill="#ffdd7d"/>
            <path id="Path_716" data-name="Path 716" d="M-166.868,3473.747a2.208,2.208,0,0,1-2.16-1.756l-5.29-25.339a2.208,2.208,0,0,1,1.792-2.558,2.209,2.209,0,0,1,2.528,1.651l5.288,25.34a2.217,2.217,0,0,1-1.728,2.616,2.19,2.19,0,0,1-.433.045Z" transform="translate(207.266 -3419.912)" fill="#ffdd7d"/>
            <path id="Path_717" data-name="Path 717" d="M-144.256,3469.761l-3.7,33.263h-31.42l-3.7-33.263c7.078,3.309,19.415,3.939,19.415,3.939S-151.334,3473.07-144.256,3469.761Z" transform="translate(209.821 -3427.445)" fill="#16d391"/>
            <path id="Path_718" data-name="Path 718" d="M-148.409,3503.665h-31.42a1.092,1.092,0,0,1-1.093-.978l-3.7-33.272a1.076,1.076,0,0,1,.453-1.011,1.094,1.094,0,0,1,1.108-.13c6.8,3.171,18.872,3.827,18.994,3.835s12.085-.6,18.88-3.835a1.094,1.094,0,0,1,1.108.105,1.077,1.077,0,0,1,.445,1.036l-3.7,33.272a1.092,1.092,0,0,1-1.084.978Zm-30.433-2.224H-149.4l3.378-30.424c-7.281,2.718-17.578,3.235-18.048,3.3s-10.912-.583-18.161-3.3Z" transform="translate(210.277 -3426.978)" fill="#191819"/>
            <circle id="Ellipse_55" data-name="Ellipse 55" cx="7.329" cy="7.329" r="7.329" transform="translate(38.829 52.921)" fill="#fff"/>
          </g>
        </g>
      </g>
    </g>
  </g>
</svg>
