<svg xmlns="http://www.w3.org/2000/svg" xmlns:xlink="http://www.w3.org/1999/xlink" width="82" height="82" viewBox="0 0 82 82">
  <defs>
    <clipPath id="clip-path">
      <circle id="Ellipse_50-2" data-name="Ellipse 50-2" cx="41" cy="41" r="41" transform="translate(0 0)" fill="#fff"/>
    </clipPath>
  </defs>
  <g id="Group_768" data-name="Group 768" transform="translate(583.414 -3391.404)">
    <circle id="Ellipse_50-2-2" data-name="Ellipse 50-2" cx="41" cy="41" r="41" transform="translate(-583.414 3391.404)" fill="#fff"/>
    <g id="Group_747" data-name="Group 747" transform="translate(-583.414 3391.404)" clip-path="url(#clip-path)">
      <g id="Group_746" data-name="Group 746" transform="translate(10.246 15.292)">
        <g id="Group_147" data-name="Group 147" transform="translate(0 5.512)">
          <path id="Path_424" data-name="Path 424" d="M-542.376,3491.588h-23.04a3.507,3.507,0,0,1-3.5-3.5v-63.745a3.508,3.508,0,0,1,3.5-3.5h23.04a3.51,3.51,0,0,1,3.5,3.5v63.745A3.509,3.509,0,0,1-542.376,3491.588Zm-23.04-68.906a1.661,1.661,0,0,0-1.661,1.657v63.745a1.662,1.662,0,0,0,1.661,1.659h23.04a1.662,1.662,0,0,0,1.658-1.659v-63.745a1.661,1.661,0,0,0-1.658-1.657Z" transform="translate(568.92 -3420.835)"/>
        </g>
        <g id="Group_152" data-name="Group 152" transform="translate(6.683 13.551)">
          <g id="Group_151" data-name="Group 151">
            <g id="Group_150" data-name="Group 150">
              <path id="Rectangle_236" data-name="Rectangle 236" d="M-558.628,3432.207h14.74a.839.839,0,0,1,.839.839h0a.839.839,0,0,1-.839.838h-14.74a.838.838,0,0,1-.838-.838h0A.838.838,0,0,1-558.628,3432.207Z" transform="translate(559.466 -3432.207)"/>
            </g>
          </g>
        </g>
        <g id="Group_155" data-name="Group 155" transform="translate(6.683 18.002)">
          <g id="Group_154" data-name="Group 154">
            <g id="Group_153" data-name="Group 153">
              <path id="Rectangle_237" data-name="Rectangle 237" d="M-558.628,3438.5h14.74a.839.839,0,0,1,.839.838h0a.839.839,0,0,1-.839.839h-14.74a.838.838,0,0,1-.838-.839h0A.838.838,0,0,1-558.628,3438.5Z" transform="translate(559.466 -3438.504)"/>
            </g>
          </g>
        </g>
        <g id="Group_157" data-name="Group 157" transform="translate(24.846 34.323)">
          <g id="Group_156" data-name="Group 156">
            <path id="Rectangle_238" data-name="Rectangle 238" d="M-532.929,3461.592h0a.843.843,0,0,1,.843.843v7.851a.843.843,0,0,1-.843.843h0a.843.843,0,0,1-.843-.843v-7.851A.843.843,0,0,1-532.929,3461.592Z" transform="translate(533.772 -3461.592)"/>
          </g>
        </g>
        <g id="Group_159" data-name="Group 159" transform="translate(35.493 34.323)">
          <g id="Group_158" data-name="Group 158">
            <path id="Rectangle_239" data-name="Rectangle 239" d="M-517.868,3461.592h0a.843.843,0,0,1,.843.843v7.851a.843.843,0,0,1-.843.843h0a.843.843,0,0,1-.843-.843v-7.851A.843.843,0,0,1-517.868,3461.592Z" transform="translate(518.711 -3461.592)"/>
          </g>
        </g>
        <g id="Group_166" data-name="Group 166" transform="translate(38.744 13.551)">
          <g id="Group_165" data-name="Group 165">
            <g id="Group_164" data-name="Group 164">
              <path id="Rectangle_242" data-name="Rectangle 242" d="M-498.533,3433.885h-14.739a.839.839,0,0,1-.839-.838h0a.839.839,0,0,1,.839-.839h14.739a.839.839,0,0,1,.839.839h0A.839.839,0,0,1-498.533,3433.885Z" transform="translate(514.111 -3432.207)"/>
            </g>
          </g>
        </g>
        <g id="Group_168" data-name="Group 168" transform="translate(38.744 18.002)">
          <g id="Group_167" data-name="Group 167">
            <path id="Rectangle_243" data-name="Rectangle 243" d="M-498.533,3440.181h-14.739a.839.839,0,0,1-.839-.839h0a.839.839,0,0,1,.839-.838h14.739a.839.839,0,0,1,.839.838h0A.839.839,0,0,1-498.533,3440.181Z" transform="translate(514.111 -3438.504)"/>
          </g>
        </g>
        <g id="Group_169" data-name="Group 169" transform="translate(31.796 5.512)">
          <path id="Path_426" data-name="Path 426" d="M-497.4,3491.588h-23.039a3.507,3.507,0,0,1-3.5-3.5v-63.745a3.508,3.508,0,0,1,3.5-3.5H-497.4a3.509,3.509,0,0,1,3.506,3.5v63.745A3.508,3.508,0,0,1-497.4,3491.588Zm-23.039-68.906a1.66,1.66,0,0,0-1.659,1.657v63.745a1.662,1.662,0,0,0,1.659,1.659H-497.4a1.66,1.66,0,0,0,1.659-1.659v-63.745a1.659,1.659,0,0,0-1.659-1.657Z" transform="translate(523.94 -3420.835)"/>
        </g>
        <g id="Group_193" data-name="Group 193" transform="translate(44.503)">
          <g id="Group_171" data-name="Group 171" transform="translate(0.567 0.869)">
            <g id="Group_170" data-name="Group 170">
              <circle id="Ellipse_47" data-name="Ellipse 47" cx="10.864" cy="10.864" r="10.864" fill="#fffcfc"/>
            </g>
          </g>
          <g id="Group_189" data-name="Group 189" transform="translate(6.736 4.734)">
            <g id="Group_176" data-name="Group 176" transform="translate(3.524 5.667)">
              <g id="Group_175" data-name="Group 175">
                <path id="Path_428" data-name="Path 428" d="M-489.106,3427.751a1.434,1.434,0,0,1-2,.345,1.454,1.454,0,0,1-.345-.345Z" transform="translate(491.45 -3427.751)" fill="none"/>
              </g>
            </g>
            <g id="Group_178" data-name="Group 178" transform="translate(3.258 1.338)">
              <g id="Group_177" data-name="Group 177">
                <path id="Path_429" data-name="Path 429" d="M-488.952,3423.063v1.808h-2.874v-1.808a1.437,1.437,0,0,1,1.436-1.436A1.437,1.437,0,0,1-488.952,3423.063Z" transform="translate(491.826 -3421.627)" fill="none"/>
              </g>
            </g>
            <g id="Group_180" data-name="Group 180" transform="translate(1.087 5.668)">
              <g id="Group_179" data-name="Group 179">
                <path id="Path_430" data-name="Path 430" d="M-487.679,3428.729v4.76a.978.978,0,0,1-.978.978h-5.261a.978.978,0,0,1-.978-.978v-4.76a.98.98,0,0,1,.963-.978,2.774,2.774,0,0,0,3.476,1.819,2.774,2.774,0,0,0,1.819-1.819A.98.98,0,0,1-487.679,3428.729Z" transform="translate(494.897 -3427.752)" fill="none"/>
              </g>
            </g>
            <g id="Group_182" data-name="Group 182" transform="translate(1.087 5.668)">
              <g id="Group_181" data-name="Group 181">
                <path id="Path_431" data-name="Path 431" d="M-487.679,3433.488a.978.978,0,0,1-.978.979h-5.261a.979.979,0,0,1-.978-.979v-4.759a.979.979,0,0,1,.963-.978h5.295a.979.979,0,0,1,.961.978Z" transform="translate(494.897 -3427.752)" fill="#16d391"/>
              </g>
            </g>
            <g id="Group_184" data-name="Group 184" transform="translate(1.921)">
              <g id="Group_183" data-name="Group 183">
                <path id="Path_432" data-name="Path 432" d="M-488.17,3422.508v1.815c-.049,0-.1,0-.143,0h-1.2v-1.809a1.437,1.437,0,0,0-1.468-1.406,1.437,1.437,0,0,0-1.407,1.406v1.809h-1.195a1.361,1.361,0,0,0-.141,0v-1.815a2.774,2.774,0,0,1,2.775-2.774,2.774,2.774,0,0,1,2.775,2.774h0Z" transform="translate(493.718 -3419.734)"/>
              </g>
            </g>
            <g id="Group_186" data-name="Group 186" transform="translate(6.852 5.264)">
              <g id="Group_185" data-name="Group 185">
                <rect id="Rectangle_244" data-name="Rectangle 244" width="1.824" height="7.437" fill="#16d391"/>
              </g>
            </g>
            <g id="Group_188" data-name="Group 188" transform="translate(0 4.584)">
              <g id="Group_187" data-name="Group 187">
                <path id="Path_433" data-name="Path 433" d="M-488.966,3426.225c-.047,0-.1-.006-.143-.006h-5.264a1.166,1.166,0,0,0-.141.006,2.063,2.063,0,0,0-1.92,2.055v4.76a2.064,2.064,0,0,0,2.061,2.062h5.262a2.064,2.064,0,0,0,2.061-2.062v-4.76A2.062,2.062,0,0,0-488.966,3426.225Zm.836,6.814a.98.98,0,0,1-.979.978h-5.264a.979.979,0,0,1-.979-.978v-4.76a.981.981,0,0,1,.963-.978h5.3a.98.98,0,0,1,.963.978Z" transform="translate(496.435 -3426.219)"/>
              </g>
            </g>
          </g>
          <g id="Group_192" data-name="Group 192">
            <g id="Group_191" data-name="Group 191">
              <g id="Group_190" data-name="Group 190">
                <path id="Path_434" data-name="Path 434" d="M-485.176,3419.315h0a.634.634,0,0,0-.164.764,10.122,10.122,0,0,1,1,4.057,10.2,10.2,0,0,1-9.822,10.558,10.2,10.2,0,0,1-10.558-9.823,10.2,10.2,0,0,1,9.822-10.558q.185-.007.369-.007a10.114,10.114,0,0,1,5.987,1.943.639.639,0,0,0,.787-.028h0a.637.637,0,0,0,.081-.9.681.681,0,0,0-.115-.107,11.452,11.452,0,0,0-15.993,2.555,11.452,11.452,0,0,0,2.555,15.993,11.453,11.453,0,0,0,15.993-2.555,11.451,11.451,0,0,0,1.277-11.171c-.073-.172-.149-.341-.23-.51a.638.638,0,0,0-.85-.3A.641.641,0,0,0-485.176,3419.315Z" transform="translate(505.964 -3413.037)"/>
              </g>
            </g>
          </g>
        </g>
      </g>
    </g>
  </g>
</svg>
