<svg xmlns="http://www.w3.org/2000/svg" xmlns:xlink="http://www.w3.org/1999/xlink" width="82" height="82" viewBox="0 0 82 82">
  <defs>
    <clipPath id="clip-path">
      <circle id="Ellipse_48-2" data-name="Ellipse 48-2" cx="41" cy="41" r="41" transform="translate(0 0)" fill="#fff"/>
    </clipPath>
  </defs>
  <g id="Group_765" data-name="Group 765" transform="translate(924.809 -3391.404)">
    <g id="Group_743" data-name="Group 743" transform="translate(-924.809 3391.404)">
      <circle id="Ellipse_48-2-2" data-name="Ellipse 48-2" cx="41" cy="41" r="41" transform="translate(0 0)" fill="#fff"/>
      <g id="Group_742" data-name="Group 742" clip-path="url(#clip-path)">
        <g id="Group_196" data-name="Group 196" transform="translate(11.071 18.651)">
          <g id="Group_139" data-name="Group 139" transform="translate(9.647 17.786)">
            <path id="Path_399" data-name="Path 399" d="M-862.845,3475.474v-3.764a15.207,15.207,0,0,1-8.839-.816,20.161,20.161,0,0,0-4.152-1.122,10.911,10.911,0,0,0-3.9.235,29.034,29.034,0,0,0-7.3,2.928,14.651,14.651,0,0,0,16.276,12.824,14.649,14.649,0,0,0,10.845-7.024l-1.015-.414A3.078,3.078,0,0,1-862.845,3475.474Z" transform="translate(893.02 -3450.789)" fill="#16d391"/>
            <path id="Path_402" data-name="Path 402" d="M-888.642,3473.63l-.555-.877a15.9,15.9,0,0,0,15.848,14.6c.427,0,.855-.023,1.282-.057a18.465,18.465,0,0,1-8.344-15.849c0-.439.014-.875.042-1.305A30.525,30.525,0,0,0-888.642,3473.63Z" transform="translate(893.653 -3450.919)" fill="#16d391"/>
            <path id="Path_403" data-name="Path 403" d="M-859.607,3471.02l-.353-.142-1.161-.476a1.214,1.214,0,0,1-.673-.684.768.768,0,0,1-.029-.084,1.2,1.2,0,0,1-.052-.357v-8.013a1.211,1.211,0,0,1,.731-1.112l1.342-.583.107-.047a1.674,1.674,0,0,0,.872-2.2q-.031-.071-.068-.14l-.011-.016a16.416,16.416,0,0,0-22.275-6.545,16.415,16.415,0,0,0-8.55,14.158c0,.32,0,.641.013.961a.206.206,0,0,0,0,.042,16.414,16.414,0,0,0,17.142,15.652,16.416,16.416,0,0,0,13.483-8.213c.053-.09.107-.183.155-.274a1.373,1.373,0,0,0-.542-1.865C-859.518,3471.06-859.562,3471.04-859.607,3471.02Zm-28.258-6.683c.009-.165.018-.331.034-.5a2.908,2.908,0,0,1,.026-.291c.009-.1.018-.182.029-.271s.021-.169.034-.253c.018-.143.04-.283.063-.421.019-.107.038-.213.059-.32s.042-.224.069-.336.048-.221.077-.33.052-.213.081-.326c.055-.221.12-.433.19-.646a14.616,14.616,0,0,1,8.83-9.273c.107-.042.209-.079.321-.113q.32-.115.641-.206c.107-.035.214-.067.32-.093s.2-.056.3-.079c.124-.029.248-.058.372-.085.107-.024.213-.047.314-.066s.185-.037.279-.052c.158-.027.32-.054.481-.075.084-.013.171-.024.255-.033a.563.563,0,0,0,.085-.012c.19-.021.38-.038.57-.054.127-.011.256-.018.382-.023a14.528,14.528,0,0,1,5.136.659c.156.048.309.1.462.156a13.926,13.926,0,0,1,1.766.76c.282.144.56.3.833.464a14.464,14.464,0,0,1,1.932,1.381c.242.206.478.416.7.641a14.6,14.6,0,0,1,2.61,3.37l-1.274.551a3.064,3.064,0,0,0-1.845,2.809v2.4a13.392,13.392,0,0,1-8.165-.68,21.964,21.964,0,0,0-4.479-1.2c-4.016-.6-8.9,1.547-11.509,2.918v0C-887.879,3464.593-887.87,3464.462-887.865,3464.337Zm14.556,15.278a14.477,14.477,0,0,1-5.992-1.289c-.213-.1-.428-.2-.641-.307a14.611,14.611,0,0,1-7.843-11.261c2.109-1.175,7.254-3.727,11.142-3.146a20.25,20.25,0,0,1,4.128,1.117,15.092,15.092,0,0,0,8.787.813v3.74a3.073,3.073,0,0,0,.4,1.518,3.424,3.424,0,0,0,.393.543,3.123,3.123,0,0,0,1.111.773l1.008.411a14.574,14.574,0,0,1-12.5,7.086Z" transform="translate(893.808 -3444.61)"/>
            <path id="Rectangle_226" data-name="Rectangle 226" d="M-845.692,3466.646h0a1.053,1.053,0,0,1,1.053,1.052v5.819a1.052,1.052,0,0,1-1.053,1.052h0a1.052,1.052,0,0,1-1.053-1.052V3467.7A1.053,1.053,0,0,1-845.692,3466.646Z" transform="translate(881.21 -3449.896)"/>
            <path id="Path_404" data-name="Path 404" d="M-874.127,3442.969a20.639,20.639,0,0,0-21.368,18.3.887.887,0,0,0,.79.976.889.889,0,0,0,.095,0h0a.968.968,0,0,0,.962-.855,18.766,18.766,0,0,1,20.815-16.463,18.766,18.766,0,0,1,16.463,20.815,18.766,18.766,0,0,1-20.815,16.463,18.766,18.766,0,0,1-16.437-16.254.885.885,0,0,0-.881-.772h-.157a.811.811,0,0,0-.812.812.876.876,0,0,0,.006.1,20.613,20.613,0,0,0,22.983,17.932,20.612,20.612,0,0,0,17.932-22.982,20.611,20.611,0,0,0-19.572-18.068Z" transform="translate(895.5 -3442.95)"/>
          </g>
          <path id="Path_405" data-name="Path 405" d="M-897.291,3496.927h-9.783a.91.91,0,0,1-.9-.924h0a.909.909,0,0,1,.895-.923h9.784a.909.909,0,0,1,.9.922h0a.91.91,0,0,1-.9.924Z" transform="translate(908.802 -3440.443)"/>
          <path id="Path_406" data-name="Path 406" d="M-831.057,3496.927h-8.729a.885.885,0,0,1-.839-.924h0a.884.884,0,0,1,.839-.923h8.729a.882.882,0,0,1,.836.923h0A.883.883,0,0,1-831.057,3496.927Z" transform="translate(889.063 -3440.443)"/>
          <rect id="Rectangle_227" data-name="Rectangle 227" width="44.467" height="1.847" rx="0.924" transform="translate(14.468 13.323)"/>
          <rect id="Rectangle_228" data-name="Rectangle 228" width="57.614" height="1.847" transform="translate(1.32 63.585)"/>
          <path id="Path_407" data-name="Path 407" d="M-855.848,3487.449h-46.739a6.566,6.566,0,0,1-6.56-6.559v-56.543a6.566,6.566,0,0,1,6.56-6.559h46.739a6.566,6.566,0,0,1,6.559,6.559v56.543A6.565,6.565,0,0,1-855.848,3487.449Zm-46.739-67.814a4.718,4.718,0,0,0-4.711,4.712v56.543a4.718,4.718,0,0,0,4.711,4.713h46.739a4.718,4.718,0,0,0,4.712-4.713v-56.543a4.717,4.717,0,0,0-4.712-4.712Z" transform="translate(909.147 -3417.789)"/>
          <g id="Group_140" data-name="Group 140" transform="translate(0.915 13.317)">
            <path id="Path_408" data-name="Path 408" d="M-900.022,3436.628h-7.831v1.848h7.831a.924.924,0,0,0,.892-.955A.924.924,0,0,0-900.022,3436.628Z" transform="translate(907.853 -3436.628)"/>
          </g>
          <g id="Group_141" data-name="Group 141" transform="translate(5.208 4.308)">
            <path id="Path_409" data-name="Path 409" d="M-895.689,3423.883h-3.846a2.244,2.244,0,0,0-2.244,2.244h0v1.923a2.244,2.244,0,0,0,2.244,2.244h3.846a2.244,2.244,0,0,0,2.244-2.244h0v-1.923a2.244,2.244,0,0,0-2.244-2.244Zm.386,4.454h-4.613v-2.511h4.613Z" transform="translate(901.779 -3423.883)"/>
          </g>
          <path id="Path_410" data-name="Path 410" d="M-853.128,3430.662a3.592,3.592,0,0,1-3.591-3.591,3.591,3.591,0,0,1,3.591-3.59,3.59,3.59,0,0,1,3.591,3.59A3.6,3.6,0,0,1-853.128,3430.662Zm0-5.335a1.743,1.743,0,0,0-1.743,1.745,1.744,1.744,0,0,0,1.745,1.742,1.744,1.744,0,0,0,1.742-1.744,1.745,1.745,0,0,0-1.745-1.742Z" transform="translate(893.78 -3419.457)"/>
          <path id="Path_411" data-name="Path 411" d="M-838.321,3430.662a3.591,3.591,0,0,1-3.59-3.592,3.59,3.59,0,0,1,3.592-3.59,3.591,3.591,0,0,1,3.59,3.59A3.594,3.594,0,0,1-838.321,3430.662Zm0-5.335a1.744,1.744,0,0,0-1.744,1.743,1.744,1.744,0,0,0,1.744,1.744,1.744,1.744,0,0,0,1.744-1.744,1.746,1.746,0,0,0-1.744-1.742Z" transform="translate(889.44 -3419.457)"/>
        </g>
      </g>
    </g>
  </g>
</svg>
