<svg xmlns="http://www.w3.org/2000/svg" xmlns:xlink="http://www.w3.org/1999/xlink" width="82" height="82" viewBox="0 0 82 82">
  <defs>
    <clipPath id="clip-path">
      <circle id="Ellipse_48-2" data-name="Ellipse 48-2" cx="41" cy="41" r="41" transform="translate(0 0)" fill="#fff"/>
    </clipPath>
  </defs>
  <g id="Group_758" data-name="Group 758" transform="translate(924.809 -3391.404)">
    <g id="Group_743" data-name="Group 743" transform="translate(-924.809 3391.404)">
      <circle id="Ellipse_48-2-2" data-name="Ellipse 48-2" cx="41" cy="41" r="41" transform="translate(0 0)" fill="#fff"/>
      <g id="Group_742" data-name="Group 742" clip-path="url(#clip-path)">
        <g id="Group_762" data-name="Group 762" transform="translate(-62.68 -10.467)">
          <path id="Path_286" data-name="Path 286" d="M68.582,356.214a4.719,4.719,0,0,0,4.719,4.719h60.758a4.719,4.719,0,0,0,4.719-4.719V309.669h-70.2Z" transform="translate(0 -264.466)" fill="#c8d3cf"/>
          <circle id="Ellipse_30" data-name="Ellipse 30" cx="4.361" cy="4.361" r="4.361" transform="matrix(0.995, -0.099, 0.099, 0.995, 77.708, 27.608)" fill="none"/>
          <circle id="Ellipse_31" data-name="Ellipse 31" cx="4.361" cy="4.361" r="4.361" transform="translate(120.541 27.477) rotate(-4.065)" fill="none"/>
          <path id="Path_287" data-name="Path 287" d="M121.7,335.658H73.3a4.719,4.719,0,0,1-4.719-4.719V284.393h70.2V315.45Z" transform="translate(0 -241.53)" fill="#e5e5e5"/>
          <path id="Path_288" data-name="Path 288" d="M134.059,60.351H73.3a4.719,4.719,0,0,0-4.719,4.719V78.964h70.2V65.07A4.719,4.719,0,0,0,134.059,60.351ZM82.478,74.107a4.361,4.361,0,1,1,4.361-4.361A4.361,4.361,0,0,1,82.478,74.107Zm42.722,0a4.361,4.361,0,1,1,4.361-4.361A4.361,4.361,0,0,1,125.2,74.107Z" transform="translate(0 -38.228)" fill="#3bc5a2"/>
          <rect id="Rectangle_166" data-name="Rectangle 166" width="70.196" height="2.127" transform="translate(68.582 40.736)" fill="#33816a"/>
          <path id="Path_289" data-name="Path 289" d="M182.326,21.343v8.083a3.12,3.12,0,0,0,3.12,3.12V18.223A3.12,3.12,0,0,0,182.326,21.343Z" transform="translate(-103.215)" fill="#647771"/>
          <path id="Path_290" data-name="Path 290" d="M216.028,18.223h0V32.546h0a3.12,3.12,0,0,0,3.12-3.12V21.343A3.12,3.12,0,0,0,216.028,18.223Z" transform="translate(-133.797)" fill="#545b59"/>
          <path id="Path_291" data-name="Path 291" d="M651.091,21.343v8.083a3.12,3.12,0,0,0,3.12,3.12V18.223A3.12,3.12,0,0,0,651.091,21.343Z" transform="translate(-528.586)" fill="#647771"/>
          <path id="Path_292" data-name="Path 292" d="M684.793,18.223h0V32.546h0a3.12,3.12,0,0,0,3.12-3.12V21.343A3.12,3.12,0,0,0,684.793,18.223Z" transform="translate(-559.168)" fill="#545b59"/>
          <path id="Path_293" data-name="Path 293" d="M642.34,640.089H654.7a4.719,4.719,0,0,0,4.719-4.719V619.881Z" transform="translate(-520.645 -545.962)" fill="#545b59"/>
          <path id="Path_294" data-name="Path 294" d="M659.423,619.881H647.059a4.719,4.719,0,0,0-4.719,4.719v15.489Z" transform="translate(-520.645 -545.962)" fill="#33816a"/>
          <path id="Path_295" data-name="Path 295" d="M659.332,619.879l-.432.512-16.418,19.421-.142.168v.107h.09l.109-.128,16.441-19.448.443-.525v-.107Z" transform="translate(-520.645 -545.96)" fill="#fff"/>
          <g id="Group_118" data-name="Group 118" transform="translate(83.853 47.823)">
            <rect id="Rectangle_167" data-name="Rectangle 167" width="0.833" height="2.379" rx="0.416" transform="translate(18.63 5.18)" fill="#40bd9e"/>
            <rect id="Rectangle_168" data-name="Rectangle 168" width="0.833" height="2.379" rx="0.416" transform="translate(18.63 33.508)" fill="#40bd9e"/>
            <rect id="Rectangle_169" data-name="Rectangle 169" width="0.833" height="2.379" rx="0.416" transform="translate(34.108 19.701) rotate(90)" fill="#40bd9e"/>
            <rect id="Rectangle_170" data-name="Rectangle 170" width="0.833" height="2.379" rx="0.416" transform="translate(5.781 19.701) rotate(90)" fill="#40bd9e"/>
            <text id="_24" data-name="24" transform="translate(10.393 21.326)" fill="#40bd9e" font-size="12" font-family="Roboto-Bold, Roboto" font-weight="700" letter-spacing="-0.04em"><tspan x="0" y="0">24</tspan></text>
            <path id="Path_296" data-name="Path 296" d="M265.127,371.2c-.327.3-.659.59-1.006.865a15.074,15.074,0,0,1-2.185,1.5A17.91,17.91,0,0,1,248.56,375.2a17.457,17.457,0,0,1-12.553-20.656,16.932,16.932,0,0,1,6.384-9.827,16.589,16.589,0,0,1,18.28-1.05,16.144,16.144,0,0,1,2.736,2.032l-1.381.787,5.75,1.574.767-5.286-1.395.795a20.116,20.116,0,0,0-15.968-5.484,19.526,19.526,0,0,0-17.629,19.363A18.954,18.954,0,0,0,250.2,376.359a18.458,18.458,0,0,0,10.668-1.947,21.08,21.08,0,0,0,4.4-3.056Z" transform="translate(-233.551 -337.98)" fill="#40bd9e"/>
          </g>
        </g>
      </g>
    </g>
  </g>
</svg>
